<mxfile host="app.diagrams.net" agent="Mozilla/5.0 (Macintosh; Intel Mac OS X 10_15_7) AppleWebKit/537.36 (KHTML, like Gecko) Chrome/134.0.0.0 Safari/537.36" version="26.2.14">
  <diagram name="Page-1" id="58cdce13-f638-feb5-8d6f-7d28b1aa9fa0">
    <mxGraphModel dx="731" dy="413" grid="1" gridSize="10" guides="1" tooltips="1" connect="1" arrows="1" fold="1" page="1" pageScale="1" pageWidth="1100" pageHeight="850" background="none" math="0" shadow="0">
      <root>
        <mxCell id="0" />
        <mxCell id="1" parent="0" />
        <mxCell id="V81IX1mrLTwX6YYwE863-25" value="" style="whiteSpace=wrap;html=1;aspect=fixed;fillColor=#dae8fc;strokeColor=#6c8ebf;" vertex="1" parent="1">
          <mxGeometry x="40" y="220" width="120" height="120" as="geometry" />
        </mxCell>
        <mxCell id="V81IX1mrLTwX6YYwE863-30" value="" style="whiteSpace=wrap;html=1;aspect=fixed;fillColor=#f8cecc;strokeColor=#b85450;" vertex="1" parent="1">
          <mxGeometry x="180" y="560" width="120" height="120" as="geometry" />
        </mxCell>
        <mxCell id="V81IX1mrLTwX6YYwE863-31" value="" style="whiteSpace=wrap;html=1;aspect=fixed;fillColor=#f8cecc;strokeColor=#b85450;" vertex="1" parent="1">
          <mxGeometry x="190" y="570" width="120" height="120" as="geometry" />
        </mxCell>
        <mxCell id="V81IX1mrLTwX6YYwE863-32" value="" style="whiteSpace=wrap;html=1;aspect=fixed;fillColor=#f8cecc;strokeColor=#b85450;" vertex="1" parent="1">
          <mxGeometry x="200" y="580" width="120" height="120" as="geometry" />
        </mxCell>
        <mxCell id="V81IX1mrLTwX6YYwE863-34" value="" style="rounded=0;whiteSpace=wrap;html=1;fillColor=#d5e8d4;strokeColor=#82b366;" vertex="1" parent="1">
          <mxGeometry x="530" y="105" width="40" height="350" as="geometry" />
        </mxCell>
        <mxCell id="V81IX1mrLTwX6YYwE863-35" value="" style="group" vertex="1" connectable="0" parent="1">
          <mxGeometry x="290" y="220" width="150" height="150" as="geometry" />
        </mxCell>
        <mxCell id="V81IX1mrLTwX6YYwE863-1" value="" style="whiteSpace=wrap;html=1;aspect=fixed;container=0;fillColor=#e1d5e7;strokeColor=#9673a6;" vertex="1" parent="V81IX1mrLTwX6YYwE863-35">
          <mxGeometry width="120" height="120" as="geometry" />
        </mxCell>
        <mxCell id="V81IX1mrLTwX6YYwE863-20" value="" style="whiteSpace=wrap;html=1;aspect=fixed;container=0;fillColor=#e1d5e7;strokeColor=#9673a6;" vertex="1" parent="V81IX1mrLTwX6YYwE863-35">
          <mxGeometry x="10" y="10" width="120" height="120" as="geometry" />
        </mxCell>
        <mxCell id="V81IX1mrLTwX6YYwE863-21" value="" style="whiteSpace=wrap;html=1;aspect=fixed;container=0;fillColor=#e1d5e7;strokeColor=#9673a6;" vertex="1" parent="V81IX1mrLTwX6YYwE863-35">
          <mxGeometry x="20" y="20" width="120" height="120" as="geometry" />
        </mxCell>
        <mxCell id="V81IX1mrLTwX6YYwE863-22" value="" style="whiteSpace=wrap;html=1;aspect=fixed;container=0;fillColor=#e1d5e7;strokeColor=#9673a6;" vertex="1" parent="V81IX1mrLTwX6YYwE863-35">
          <mxGeometry x="30" y="30" width="120" height="120" as="geometry" />
        </mxCell>
        <mxCell id="V81IX1mrLTwX6YYwE863-36" value="" style="whiteSpace=wrap;html=1;aspect=fixed;fillColor=#f8cecc;strokeColor=#b85450;" vertex="1" parent="1">
          <mxGeometry x="210" y="590" width="120" height="120" as="geometry" />
        </mxCell>
        <mxCell id="V81IX1mrLTwX6YYwE863-37" value="" style="whiteSpace=wrap;html=1;aspect=fixed;fillColor=#dae8fc;strokeColor=#6c8ebf;" vertex="1" parent="1">
          <mxGeometry x="940" y="220" width="120" height="120" as="geometry" />
        </mxCell>
        <mxCell id="V81IX1mrLTwX6YYwE863-55" style="rounded=0;orthogonalLoop=1;jettySize=auto;html=1;exitX=1;exitY=0.5;exitDx=0;exitDy=0;entryX=0;entryY=0.5;entryDx=0;entryDy=0;endArrow=none;startFill=0;endFill=0;dashed=1;" edge="1" parent="1" source="V81IX1mrLTwX6YYwE863-38" target="V81IX1mrLTwX6YYwE863-49">
          <mxGeometry relative="1" as="geometry" />
        </mxCell>
        <mxCell id="V81IX1mrLTwX6YYwE863-56" style="rounded=0;orthogonalLoop=1;jettySize=auto;html=1;exitX=1;exitY=0.5;exitDx=0;exitDy=0;entryX=0;entryY=0.5;entryDx=0;entryDy=0;endArrow=none;startFill=0;endFill=0;dashed=1;" edge="1" parent="1" source="V81IX1mrLTwX6YYwE863-38" target="V81IX1mrLTwX6YYwE863-50">
          <mxGeometry relative="1" as="geometry" />
        </mxCell>
        <mxCell id="V81IX1mrLTwX6YYwE863-80" style="rounded=0;orthogonalLoop=1;jettySize=auto;html=1;exitX=1;exitY=0.5;exitDx=0;exitDy=0;entryX=0;entryY=0.5;entryDx=0;entryDy=0;dashed=1;endArrow=none;startFill=0;" edge="1" parent="1" source="V81IX1mrLTwX6YYwE863-38" target="V81IX1mrLTwX6YYwE863-51">
          <mxGeometry relative="1" as="geometry" />
        </mxCell>
        <mxCell id="V81IX1mrLTwX6YYwE863-81" style="rounded=0;orthogonalLoop=1;jettySize=auto;html=1;exitX=1;exitY=0.5;exitDx=0;exitDy=0;entryX=0;entryY=0.5;entryDx=0;entryDy=0;dashed=1;endArrow=none;startFill=0;" edge="1" parent="1" source="V81IX1mrLTwX6YYwE863-38" target="V81IX1mrLTwX6YYwE863-52">
          <mxGeometry relative="1" as="geometry" />
        </mxCell>
        <mxCell id="V81IX1mrLTwX6YYwE863-82" style="rounded=0;orthogonalLoop=1;jettySize=auto;html=1;exitX=1;exitY=0.5;exitDx=0;exitDy=0;entryX=0;entryY=0.5;entryDx=0;entryDy=0;dashed=1;endArrow=none;startFill=0;" edge="1" parent="1" source="V81IX1mrLTwX6YYwE863-38" target="V81IX1mrLTwX6YYwE863-53">
          <mxGeometry relative="1" as="geometry" />
        </mxCell>
        <mxCell id="V81IX1mrLTwX6YYwE863-38" value="" style="ellipse;whiteSpace=wrap;html=1;aspect=fixed;" vertex="1" parent="1">
          <mxGeometry x="650" y="105" width="40" height="40" as="geometry" />
        </mxCell>
        <mxCell id="V81IX1mrLTwX6YYwE863-57" style="rounded=0;orthogonalLoop=1;jettySize=auto;html=1;entryX=0;entryY=0.5;entryDx=0;entryDy=0;endArrow=none;startFill=0;endFill=0;dashed=1;" edge="1" parent="1" source="V81IX1mrLTwX6YYwE863-40" target="V81IX1mrLTwX6YYwE863-50">
          <mxGeometry relative="1" as="geometry" />
        </mxCell>
        <mxCell id="V81IX1mrLTwX6YYwE863-61" style="rounded=0;orthogonalLoop=1;jettySize=auto;html=1;entryX=0;entryY=0.5;entryDx=0;entryDy=0;endArrow=none;startFill=0;endFill=0;dashed=1;exitX=1;exitY=0.5;exitDx=0;exitDy=0;" edge="1" parent="1" source="V81IX1mrLTwX6YYwE863-40" target="V81IX1mrLTwX6YYwE863-51">
          <mxGeometry relative="1" as="geometry" />
        </mxCell>
        <mxCell id="V81IX1mrLTwX6YYwE863-78" style="rounded=0;orthogonalLoop=1;jettySize=auto;html=1;exitX=1;exitY=0.5;exitDx=0;exitDy=0;entryX=0;entryY=0.5;entryDx=0;entryDy=0;dashed=1;endArrow=none;startFill=0;" edge="1" parent="1" source="V81IX1mrLTwX6YYwE863-40" target="V81IX1mrLTwX6YYwE863-52">
          <mxGeometry relative="1" as="geometry" />
        </mxCell>
        <mxCell id="V81IX1mrLTwX6YYwE863-79" style="rounded=0;orthogonalLoop=1;jettySize=auto;html=1;exitX=1;exitY=0.5;exitDx=0;exitDy=0;entryX=0;entryY=0.5;entryDx=0;entryDy=0;dashed=1;endArrow=none;startFill=0;" edge="1" parent="1" source="V81IX1mrLTwX6YYwE863-40" target="V81IX1mrLTwX6YYwE863-53">
          <mxGeometry relative="1" as="geometry" />
        </mxCell>
        <mxCell id="V81IX1mrLTwX6YYwE863-40" value="" style="ellipse;whiteSpace=wrap;html=1;aspect=fixed;" vertex="1" parent="1">
          <mxGeometry x="650" y="160" width="40" height="40" as="geometry" />
        </mxCell>
        <mxCell id="V81IX1mrLTwX6YYwE863-58" style="rounded=0;orthogonalLoop=1;jettySize=auto;html=1;entryX=0;entryY=0.5;entryDx=0;entryDy=0;endArrow=none;startFill=0;endFill=0;dashed=1;" edge="1" parent="1" source="V81IX1mrLTwX6YYwE863-41" target="V81IX1mrLTwX6YYwE863-51">
          <mxGeometry relative="1" as="geometry" />
        </mxCell>
        <mxCell id="V81IX1mrLTwX6YYwE863-63" style="rounded=0;orthogonalLoop=1;jettySize=auto;html=1;endArrow=none;startFill=0;exitX=1;exitY=0.5;exitDx=0;exitDy=0;endFill=0;dashed=1;" edge="1" parent="1" source="V81IX1mrLTwX6YYwE863-41">
          <mxGeometry relative="1" as="geometry">
            <mxPoint x="740.0000000000002" y="180" as="targetPoint" />
          </mxGeometry>
        </mxCell>
        <mxCell id="V81IX1mrLTwX6YYwE863-75" style="rounded=0;orthogonalLoop=1;jettySize=auto;html=1;exitX=1;exitY=0.5;exitDx=0;exitDy=0;entryX=0;entryY=0.5;entryDx=0;entryDy=0;endArrow=none;endFill=0;startFill=0;dashed=1;" edge="1" parent="1" source="V81IX1mrLTwX6YYwE863-41" target="V81IX1mrLTwX6YYwE863-53">
          <mxGeometry relative="1" as="geometry" />
        </mxCell>
        <mxCell id="V81IX1mrLTwX6YYwE863-76" style="rounded=0;orthogonalLoop=1;jettySize=auto;html=1;exitX=1;exitY=0.5;exitDx=0;exitDy=0;endArrow=none;endFill=0;startFill=0;dashed=1;" edge="1" parent="1" source="V81IX1mrLTwX6YYwE863-41">
          <mxGeometry relative="1" as="geometry">
            <mxPoint x="740" y="300" as="targetPoint" />
          </mxGeometry>
        </mxCell>
        <mxCell id="V81IX1mrLTwX6YYwE863-77" style="rounded=0;orthogonalLoop=1;jettySize=auto;html=1;exitX=1;exitY=0.5;exitDx=0;exitDy=0;endArrow=none;endFill=0;startFill=0;dashed=1;" edge="1" parent="1" source="V81IX1mrLTwX6YYwE863-41">
          <mxGeometry relative="1" as="geometry">
            <mxPoint x="740" y="130" as="targetPoint" />
          </mxGeometry>
        </mxCell>
        <mxCell id="V81IX1mrLTwX6YYwE863-41" value="" style="ellipse;whiteSpace=wrap;html=1;aspect=fixed;" vertex="1" parent="1">
          <mxGeometry x="650" y="220" width="40" height="40" as="geometry" />
        </mxCell>
        <mxCell id="V81IX1mrLTwX6YYwE863-59" value="" style="rounded=0;orthogonalLoop=1;jettySize=auto;html=1;endArrow=none;startFill=0;endFill=0;dashed=1;" edge="1" parent="1" source="V81IX1mrLTwX6YYwE863-44" target="V81IX1mrLTwX6YYwE863-52">
          <mxGeometry relative="1" as="geometry" />
        </mxCell>
        <mxCell id="V81IX1mrLTwX6YYwE863-68" style="rounded=0;orthogonalLoop=1;jettySize=auto;html=1;exitX=1;exitY=0.5;exitDx=0;exitDy=0;entryX=0;entryY=0.5;entryDx=0;entryDy=0;endArrow=none;startFill=0;endFill=0;dashed=1;" edge="1" parent="1" source="V81IX1mrLTwX6YYwE863-44" target="V81IX1mrLTwX6YYwE863-53">
          <mxGeometry relative="1" as="geometry" />
        </mxCell>
        <mxCell id="V81IX1mrLTwX6YYwE863-70" style="rounded=0;orthogonalLoop=1;jettySize=auto;html=1;exitX=1;exitY=0.5;exitDx=0;exitDy=0;endArrow=none;startFill=0;endFill=0;dashed=1;" edge="1" parent="1" source="V81IX1mrLTwX6YYwE863-44">
          <mxGeometry relative="1" as="geometry">
            <mxPoint x="740" y="180" as="targetPoint" />
          </mxGeometry>
        </mxCell>
        <mxCell id="V81IX1mrLTwX6YYwE863-71" style="rounded=0;orthogonalLoop=1;jettySize=auto;html=1;exitX=1;exitY=0.5;exitDx=0;exitDy=0;endArrow=none;startFill=0;endFill=0;dashed=1;" edge="1" parent="1" source="V81IX1mrLTwX6YYwE863-44">
          <mxGeometry relative="1" as="geometry">
            <mxPoint x="740" y="130" as="targetPoint" />
          </mxGeometry>
        </mxCell>
        <mxCell id="V81IX1mrLTwX6YYwE863-73" style="rounded=0;orthogonalLoop=1;jettySize=auto;html=1;exitX=1;exitY=0.5;exitDx=0;exitDy=0;entryX=0;entryY=0.5;entryDx=0;entryDy=0;endArrow=none;endFill=0;startFill=0;dashed=1;" edge="1" parent="1" source="V81IX1mrLTwX6YYwE863-44" target="V81IX1mrLTwX6YYwE863-50">
          <mxGeometry relative="1" as="geometry" />
        </mxCell>
        <mxCell id="V81IX1mrLTwX6YYwE863-44" value="" style="ellipse;whiteSpace=wrap;html=1;aspect=fixed;" vertex="1" parent="1">
          <mxGeometry x="650" y="280" width="40" height="40" as="geometry" />
        </mxCell>
        <mxCell id="V81IX1mrLTwX6YYwE863-60" value="" style="rounded=0;orthogonalLoop=1;jettySize=auto;html=1;endArrow=none;startFill=0;endFill=0;dashed=1;" edge="1" parent="1" source="V81IX1mrLTwX6YYwE863-47" target="V81IX1mrLTwX6YYwE863-53">
          <mxGeometry relative="1" as="geometry" />
        </mxCell>
        <mxCell id="V81IX1mrLTwX6YYwE863-65" style="rounded=0;orthogonalLoop=1;jettySize=auto;html=1;entryX=0;entryY=0.5;entryDx=0;entryDy=0;endArrow=none;startFill=0;exitX=1;exitY=0.5;exitDx=0;exitDy=0;endFill=0;dashed=1;" edge="1" parent="1" source="V81IX1mrLTwX6YYwE863-47" target="V81IX1mrLTwX6YYwE863-52">
          <mxGeometry relative="1" as="geometry" />
        </mxCell>
        <mxCell id="V81IX1mrLTwX6YYwE863-66" style="rounded=0;orthogonalLoop=1;jettySize=auto;html=1;exitX=1;exitY=0.5;exitDx=0;exitDy=0;endArrow=none;startFill=0;endFill=0;dashed=1;" edge="1" parent="1" source="V81IX1mrLTwX6YYwE863-47">
          <mxGeometry relative="1" as="geometry">
            <mxPoint x="740.0000000000002" y="180" as="targetPoint" />
          </mxGeometry>
        </mxCell>
        <mxCell id="V81IX1mrLTwX6YYwE863-67" style="rounded=0;orthogonalLoop=1;jettySize=auto;html=1;entryX=0;entryY=0.5;entryDx=0;entryDy=0;endArrow=none;startFill=0;endFill=0;dashed=1;" edge="1" parent="1" target="V81IX1mrLTwX6YYwE863-49">
          <mxGeometry relative="1" as="geometry">
            <mxPoint x="690" y="430" as="sourcePoint" />
          </mxGeometry>
        </mxCell>
        <mxCell id="V81IX1mrLTwX6YYwE863-72" style="rounded=0;orthogonalLoop=1;jettySize=auto;html=1;exitX=1;exitY=0.5;exitDx=0;exitDy=0;entryX=0;entryY=0.5;entryDx=0;entryDy=0;endArrow=none;endFill=0;startFill=0;dashed=1;" edge="1" parent="1" source="V81IX1mrLTwX6YYwE863-47" target="V81IX1mrLTwX6YYwE863-51">
          <mxGeometry relative="1" as="geometry" />
        </mxCell>
        <mxCell id="V81IX1mrLTwX6YYwE863-47" value="" style="ellipse;whiteSpace=wrap;html=1;aspect=fixed;" vertex="1" parent="1">
          <mxGeometry x="650" y="415" width="40" height="40" as="geometry" />
        </mxCell>
        <mxCell id="V81IX1mrLTwX6YYwE863-48" value="&lt;font style=&quot;font-size: 24px;&quot;&gt;...&lt;/font&gt;" style="text;html=1;align=center;verticalAlign=middle;whiteSpace=wrap;rounded=0;" vertex="1" parent="1">
          <mxGeometry x="655" y="360" width="30" height="10" as="geometry" />
        </mxCell>
        <mxCell id="V81IX1mrLTwX6YYwE863-49" value="" style="ellipse;whiteSpace=wrap;html=1;aspect=fixed;" vertex="1" parent="1">
          <mxGeometry x="740" y="105" width="40" height="40" as="geometry" />
        </mxCell>
        <mxCell id="V81IX1mrLTwX6YYwE863-50" value="" style="ellipse;whiteSpace=wrap;html=1;aspect=fixed;" vertex="1" parent="1">
          <mxGeometry x="740" y="160" width="40" height="40" as="geometry" />
        </mxCell>
        <mxCell id="V81IX1mrLTwX6YYwE863-51" value="" style="ellipse;whiteSpace=wrap;html=1;aspect=fixed;" vertex="1" parent="1">
          <mxGeometry x="740" y="220" width="40" height="40" as="geometry" />
        </mxCell>
        <mxCell id="V81IX1mrLTwX6YYwE863-52" value="" style="ellipse;whiteSpace=wrap;html=1;aspect=fixed;" vertex="1" parent="1">
          <mxGeometry x="740" y="280" width="40" height="40" as="geometry" />
        </mxCell>
        <mxCell id="V81IX1mrLTwX6YYwE863-53" value="" style="ellipse;whiteSpace=wrap;html=1;aspect=fixed;" vertex="1" parent="1">
          <mxGeometry x="740" y="415" width="40" height="40" as="geometry" />
        </mxCell>
        <mxCell id="V81IX1mrLTwX6YYwE863-54" value="&lt;font style=&quot;font-size: 24px;&quot;&gt;...&lt;/font&gt;" style="text;html=1;align=center;verticalAlign=middle;whiteSpace=wrap;rounded=0;" vertex="1" parent="1">
          <mxGeometry x="745" y="360" width="30" height="10" as="geometry" />
        </mxCell>
        <mxCell id="V81IX1mrLTwX6YYwE863-62" style="rounded=0;orthogonalLoop=1;jettySize=auto;html=1;entryX=0;entryY=0.5;entryDx=0;entryDy=0;endArrow=none;startFill=0;endFill=0;dashed=1;exitX=1;exitY=0.5;exitDx=0;exitDy=0;" edge="1" parent="1" source="V81IX1mrLTwX6YYwE863-40" target="V81IX1mrLTwX6YYwE863-49">
          <mxGeometry relative="1" as="geometry" />
        </mxCell>
        <mxCell id="V81IX1mrLTwX6YYwE863-64" style="rounded=0;orthogonalLoop=1;jettySize=auto;html=1;entryX=0;entryY=0.5;entryDx=0;entryDy=0;exitX=1;exitY=0.5;exitDx=0;exitDy=0;endArrow=none;startFill=0;endFill=0;dashed=1;" edge="1" parent="1" source="V81IX1mrLTwX6YYwE863-44" target="V81IX1mrLTwX6YYwE863-51">
          <mxGeometry relative="1" as="geometry" />
        </mxCell>
      </root>
    </mxGraphModel>
  </diagram>
</mxfile>
